<svg xmlns="http://www.w3.org/2000/svg" xmlns:xlink="http://www.w3.org/1999/xlink" width="40" height="40" viewBox="0 0 40 40"><defs><path id="aktaa" d="M350 3368.2c-9.264 0-16.8 7.536-16.8 16.8 0 9.263 7.536 16.837 16.8 16.837 9.264 0 16.8-7.574 16.8-16.837 0-9.264-7.536-16.8-16.8-16.8 0 0 9.264 0 0 0zm0-2.4c10.604 0 19.2 8.596 19.2 19.2s-8.596 19.2-19.2 19.2-19.2-8.596-19.2-19.2 8.596-19.2 19.2-19.2zm0 6a1.2 1.2 0 0 1 1.2 1.2v11.512l5.664 5.665a1.2 1.2 0 0 1-1.697 1.697l-5.94-5.94a1.214 1.214 0 0 1-.088-.099 1.196 1.196 0 0 1-.34-.835v-12a1.2 1.2 0 0 1 1.2-1.2z"/></defs><g><g transform="translate(-330 -3365)"><use fill="#fff" xlink:href="#aktaa"/></g></g></svg>