<svg xmlns="http://www.w3.org/2000/svg" xmlns:xlink="http://www.w3.org/1999/xlink" width="130" height="130" viewBox="0 0 130 130"><defs><path id="nd6xa" d="M350 3320c35.898 0 65 29.101 65 65 0 35.898-29.102 65-65 65-35.899 0-65-29.102-65-65 0-35.899 29.101-65 65-65z"/><path id="nd6xc" d="M350 3368.2c-9.264 0-16.8 7.536-16.8 16.8 0 9.263 7.536 16.837 16.8 16.837 9.264 0 16.8-7.574 16.8-16.837 0-9.264-7.536-16.8-16.8-16.8 0 0 9.264 0 0 0zm0-2.4c10.604 0 19.2 8.596 19.2 19.2s-8.596 19.2-19.2 19.2-19.2-8.596-19.2-19.2 8.596-19.2 19.2-19.2zm0 6a1.2 1.2 0 0 1 1.2 1.2v11.512l5.664 5.665a1.2 1.2 0 0 1-1.697 1.697l-5.94-5.94a1.214 1.214 0 0 1-.088-.099 1.196 1.196 0 0 1-.34-.835v-12a1.2 1.2 0 0 1 1.2-1.2z"/><clipPath id="nd6xb"><use fill="#fff" xlink:href="#nd6xa"/></clipPath></defs><g><g opacity=".4" transform="translate(-285 -3320)"><use fill="#fff" fill-opacity="0" stroke="#fff" stroke-miterlimit="50" stroke-width="4" clip-path="url(&quot;#nd6xb&quot;)" xlink:href="#nd6xa"/></g><g transform="translate(-285 -3320)"><use fill="#fff" xlink:href="#nd6xc"/></g></g></svg>