<svg xmlns="http://www.w3.org/2000/svg" xmlns:xlink="http://www.w3.org/1999/xlink" width="130" height="130" viewBox="0 0 130 130"><defs><path id="w3h2a" d="M1251 3320c35.898 0 65 29.101 65 65 0 35.898-29.102 65-65 65-35.899 0-65-29.102-65-65 0-35.899 29.101-65 65-65z"/><path id="w3h2c" d="M1238.344 3375.345v-4.276h-4.834c-.056 1.152.055 3.167 1.168 4.532.818 1.006 2.096 1.596 3.805 1.759a14.603 14.603 0 0 1-.139-2.015zm0-8.074c0-.7.562-1.266 1.256-1.266h22.593a1.26 1.26 0 0 1 1.256 1.266v1.265h6.148c.596 0 1.111.423 1.23 1.011.037.184.88 4.622-1.566 7.646-1.438 1.777-3.643 2.7-6.557 2.745-1.614 4.8-5.683 8.346-10.563 8.865v8.82h3.882a1.26 1.26 0 0 1 1.257 1.267c0 .7-.562 1.267-1.257 1.267h-10.154a1.26 1.26 0 0 1-1.256-1.267c0-.7.562-1.267 1.256-1.267h3.76v-8.822c-4.872-.53-8.93-4.073-10.54-8.867-2.82-.082-4.96-1.003-6.367-2.74-2.446-3.025-1.603-7.463-1.566-7.647a1.258 1.258 0 0 1 1.23-1.011h5.958zm25.105 8.074c0 .69-.048 1.368-.142 2.031 1.807-.136 3.15-.731 3.998-1.775 1.113-1.365 1.225-3.38 1.168-4.532h-5.024zm-22.592-6.807v6.807c0 6.06 4.504 10.99 10.041 10.99 5.535 0 10.038-4.93 10.038-10.99v-6.807zm18.92 35.457h-17.662a1.26 1.26 0 0 1-1.256-1.267c0-.7.562-1.266 1.256-1.266h17.662a1.26 1.26 0 0 1 1.256 1.266c0 .7-.562 1.267-1.256 1.267z"/><clipPath id="w3h2b"><use fill="#fff" xlink:href="#w3h2a"/></clipPath></defs><g><g opacity=".4" transform="translate(-1186 -3320)"><use fill="#fff" fill-opacity="0" stroke="#fff" stroke-miterlimit="50" stroke-width="4" clip-path="url(&quot;#w3h2b&quot;)" xlink:href="#w3h2a"/></g><g transform="translate(-1186 -3320)"><use fill="#fff" xlink:href="#w3h2c"/></g></g></svg>