<svg xmlns="http://www.w3.org/2000/svg" xmlns:xlink="http://www.w3.org/1999/xlink" width="23" height="16" viewBox="0 0 23 16"><defs><path id="nhsya" d="M1152.516 4253.465c-.2 0-.47-.01-.69.032l9.674 7.801 9.713-7.833h-.01zm-1.079 12c0 .402.682 1.091 1.079 1.091h18.687c.397 0 .36-.69.36-1.09v-10.42l-9.593 7.764a.711.711 0 0 1-.94 0l-9.593-7.764zm19.766-13.454c.984 0 1.569.418 1.742 1.244a.737.737 0 0 1 .049.372c.004.065.006.133.006.202v11.636c0 1.206-.606 2.546-1.797 2.546h-18.687c-1.191 0-2.516-1.34-2.516-2.546v-11.636c0-.06.003-.12.01-.176a.732.732 0 0 1 .268-.694c.45-.63 1.379-.948 2.238-.948z"/></defs><g><g transform="translate(-1150 -4252)"><use fill="#0eb493" xlink:href="#nhsya"/></g></g></svg>