<svg xmlns="http://www.w3.org/2000/svg" xmlns:xlink="http://www.w3.org/1999/xlink" width="130" height="130" viewBox="0 0 130 130"><defs><path id="7seha" d="M651 3320c35.898 0 65 29.101 65 65 0 35.898-29.102 65-65 65-35.899 0-65-29.102-65-65 0-35.899 29.101-65 65-65z"/><path id="7sehc" d="M646.898 3374.317c-3.367 0-6.583 2.935-6.583 4.639v5.01c0 1.884.853 5.417 2.844 7.012a2.372 2.372 0 0 1-.354 3.937l-7.67 4.155c-.053.03-.108.057-.164.082a3.85 3.85 0 0 0-.596.354v2.121h24.939v-2.147a3.41 3.41 0 0 0-.549-.307c-.07-.03-.153-.07-.22-.105l-7.475-4.137a2.377 2.377 0 0 1-1.23-1.885 2.376 2.376 0 0 1 .899-2.064c2.05-1.61 2.627-5.159 2.627-7.017v-5.01c0-1.744-3.037-4.638-6.468-4.638 0 0 3.368 0 0 0zm0-2.373c4.431 0 8.843 3.695 8.843 7.012v5.01c0 2.405-.755 6.698-3.534 8.882l7.477 4.137s2.005.825 2.005 2.004v3.007a2.006 2.006 0 0 1-2.005 2.004h-25.68a2.005 2.005 0 0 1-2.004-2.004v-3.007c0-1.112 2.004-2.004 2.004-2.004l7.67-4.156c-2.808-2.249-3.734-6.675-3.734-8.864v-5.01c0-3.316 4.528-7.01 8.958-7.01zM670 3393.082v2.97a2.006 2.006 0 0 1-2.005 2.003h-3.94c-.281-1.046-.5-1.827-1.224-2.372h4.794v-2.11a3.419 3.419 0 0 0-.549-.307c-.07-.03-.153-.07-.219-.105l-7.587-4.137a2.376 2.376 0 0 1-1.23-1.885 2.375 2.375 0 0 1 .899-2.064c2.049-1.61 2.738-5.159 2.738-7.017v-5.01c0-1.744-3.149-4.676-6.579-4.676-1.717 0-3.3.58-4.552 1.553-.93-.297-2.008-.298-2.986-.358 1.714-2.003 4.659-3.567 7.538-3.567 4.431 0 8.954 3.732 8.954 7.048v5.01c0 2.406-.866 6.698-3.645 8.882l7.588 4.138s2.005.824 2.005 2.004z"/><clipPath id="7sehb"><use fill="#fff" xlink:href="#7seha"/></clipPath></defs><g><g opacity=".4" transform="translate(-586 -3320)"><use fill="#fff" fill-opacity="0" stroke="#fff" stroke-miterlimit="50" stroke-width="4" clip-path="url(&quot;#7sehb&quot;)" xlink:href="#7seha"/></g><g transform="translate(-586 -3320)"><use fill="#fff" xlink:href="#7sehc"/></g></g></svg>