<svg xmlns="http://www.w3.org/2000/svg" xmlns:xlink="http://www.w3.org/1999/xlink" width="130" height="130" viewBox="0 0 130 130"><defs><path id="v8lka" d="M950 3320c35.898 0 65 29.101 65 65 0 35.898-29.102 65-65 65-35.899 0-65-29.102-65-65 0-35.899 29.101-65 65-65z"/><path id="v8lkc" d="M934.983 3400.978L934 3401l-.017-1.022c0-5.023 1.01-6.076 3.155-7.146.512-.255 1.04-.487 1.616-.928l1.218 1.554c-.728.56-1.4.895-1.941 1.165-1.288.64-1.93 1.003-2.031 4.377 3.497-.127 3.893-.998 4.522-2.304.245-.508.523-1.085.968-1.692l1.483 1.347c-.367.61-.488.915-.706 1.367-.993 2.063-1.984 3.26-7.284 3.26zm21.015-17.967a4.016 4.016 0 0 1-4.01-4.01c0-2.213 1.8-4.012 4.01-4.012 2.212 0 4.011 1.8 4.011 4.011 0 2.212-1.8 4.01-4.01 4.01zm0-6.013a2.005 2.005 0 0 0-2.002 2.002c0 1.104.899 2.002 2.002 2.002a2.005 2.005 0 0 0 2.003-2.002 2.005 2.005 0 0 0-2.003-2.002zm-8.704 24.15a1.001 1.001 0 0 1-.973-.77l-1.217-5.147-2.26-2.506c-1.084-1.203-1.761-1.954-2.168-2.456l-5.967-1.364a1 1 0 0 1-.525-1.639l3.666-3.973a1 1 0 0 1 .748-.337h5.563c.346-.622.754-1.436 1.181-2.288 1.105-2.205 2.358-4.862 3.617-6.331 1.512-1.763 3.13-2.927 5.098-3.661 5.383-2.01 10.98-1.602 10.98-1.602a1 1 0 0 1 .925.935c.017.264.374 6.493-1.306 11.014-.706 1.9-1.425 3.187-3.398 4.941-1.402 1.246-4.782 2.821-7.046 4.087-.831.465-1.714.942-2.212 1.25v5.161c0 .292-.128.57-.35.759l-3.705 3.686a1 1 0 0 1-.65.24zm-5.363-12.43c.213.244 2.99 3.325 4.83 5.363a.999.999 0 0 1 .23.44l.9 3.8 2.109-2.319v-5.226c0-.301.135-.585.368-.775.404-.33 1.327-.834 2.868-1.695 2.065-1.154 5.454-2.735 6.694-3.837 1.677-1.491 2.235-2.484 2.851-4.142 1.178-3.17 1.247-7.445 1.215-9.289-1.741-.012-5.55.133-9.24 1.512-1.658.62-2.979 1.572-4.278 3.088-1.1 1.284-2.346 3.928-3.348 5.926-.591 1.18-1.102 2.2-1.542 2.916a1 1 0 0 1-.852.476h-5.688l-2.247 2.375 4.58 1.048a1 1 0 0 1 .55.34z"/><clipPath id="v8lkb"><use fill="#fff" xlink:href="#v8lka"/></clipPath></defs><g><g opacity=".4" transform="translate(-885 -3320)"><use fill="#fff" fill-opacity="0" stroke="#fff" stroke-miterlimit="50" stroke-width="4" clip-path="url(&quot;#v8lkb&quot;)" xlink:href="#v8lka"/></g><g transform="translate(-885 -3320)"><use fill="#fff" xlink:href="#v8lkc"/></g></g></svg>